<svg xmlns="http://www.w3.org/2000/svg" xmlns:xlink="http://www.w3.org/1999/xlink" viewBox="0 0 69.29 72.66"><defs><style>.cls-1{mask:url(#mask);}.cls-2,.cls-4,.cls-6{mix-blend-mode:multiply;}.cls-2{fill:url(#linear-gradient);}.cls-3{mask:url(#mask-2);}.cls-4{fill:url(#linear-gradient-2);}.cls-5{mask:url(#mask-3);}.cls-6{fill:url(#linear-gradient-3);}.cls-7{fill:#cd7d0a;}.cls-8{fill:#ab6004;}.cls-9{mask:url(#mask-4);}.cls-10{fill:url(#linear-gradient-4);}.cls-11{fill:#f2b829;}.cls-12{fill:#ffed8b;}.cls-13{mask:url(#mask-5);}.cls-14{fill:url(#linear-gradient-5);}.cls-15{fill:url(#linear-gradient-6);}.cls-16{mask:url(#mask-6);}.cls-17{fill:url(#linear-gradient-7);}.cls-18{fill:#fff;}.cls-19{filter:url(#luminosity-noclip-3);}.cls-20{filter:url(#luminosity-noclip-2);}.cls-21{filter:url(#luminosity-noclip);}</style><filter id="luminosity-noclip" x="0.4" y="-8350.44" width="68.49" height="32766" filterUnits="userSpaceOnUse" color-interpolation-filters="sRGB"><feFlood flood-color="#fff" result="bg"/><feBlend in="SourceGraphic" in2="bg"/></filter><mask id="mask" x="0.4" y="-8350.44" width="68.49" height="32766" maskUnits="userSpaceOnUse"><g class="cls-21"/></mask><linearGradient id="linear-gradient" x1="37.59" y1="61.43" x2="34.11" y2="32.85" gradientUnits="userSpaceOnUse"><stop offset="0.2" stop-color="#fff"/><stop offset="1"/></linearGradient><filter id="luminosity-noclip-2" x="0.4" y="-8350.44" width="62.59" height="32766" filterUnits="userSpaceOnUse" color-interpolation-filters="sRGB"><feFlood flood-color="#fff" result="bg"/><feBlend in="SourceGraphic" in2="bg"/></filter><mask id="mask-2" x="0.4" y="-8350.44" width="62.59" height="32766" maskUnits="userSpaceOnUse"><g class="cls-20"/></mask><linearGradient id="linear-gradient-2" x1="23.29" y1="11.6" x2="43.25" y2="60.61" gradientUnits="userSpaceOnUse"><stop offset="0.2" stop-color="#fff"/><stop offset="0.62"/></linearGradient><filter id="luminosity-noclip-3" x="8.33" y="-8350.44" width="49.04" height="32766" filterUnits="userSpaceOnUse" color-interpolation-filters="sRGB"><feFlood flood-color="#fff" result="bg"/><feBlend in="SourceGraphic" in2="bg"/></filter><mask id="mask-3" x="8.33" y="-8350.44" width="49.04" height="32766" maskUnits="userSpaceOnUse"><g class="cls-19"/></mask><linearGradient id="linear-gradient-3" x1="21.95" y1="9.88" x2="46.19" y2="61.65" xlink:href="#linear-gradient-2"/><mask id="mask-4" x="0.4" y="35.51" width="68.49" height="25.15" maskUnits="userSpaceOnUse"><g class="cls-1"><path class="cls-2" d="M60.36,60.66a38.07,38.07,0,0,0,8.53-24.33c0-.27,0-.55,0-.82H.42c0,.27,0,.55,0,.82A38.13,38.13,0,0,0,8.93,60.66Z"/></g></mask><linearGradient id="linear-gradient-4" x1="37.59" y1="61.43" x2="34.11" y2="32.85" gradientUnits="userSpaceOnUse"><stop offset="0.2" stop-color="#b15700"/><stop offset="1" stop-color="#b15700"/></linearGradient><mask id="mask-5" x="0.4" y="0.4" width="62.59" height="41.11" maskUnits="userSpaceOnUse"><g class="cls-3"><path class="cls-4" d="M29.87,30.08,30.1,30l1.56-.44A157.82,157.82,0,0,1,63,24.09C58.5,10.27,46.62.4,32.66.4,14.84.4.4,16.49.4,36.33a40.12,40.12,0,0,0,.34,5.18C9.6,36.05,20.21,32.85,29.87,30.08Z"/></g></mask><linearGradient id="linear-gradient-5" x1="23.29" y1="11.6" x2="43.25" y2="60.61" gradientUnits="userSpaceOnUse"><stop offset="0.2" stop-color="#ffcf51"/><stop offset="0.62" stop-color="#ffcf00"/></linearGradient><linearGradient id="linear-gradient-6" x1="31.43" y1="29.48" x2="36.38" y2="57.1" gradientUnits="userSpaceOnUse"><stop offset="0" stop-color="#cb7b11"/><stop offset="0.36" stop-color="#dd930c"/><stop offset="0.66" stop-color="#e69a0a"/><stop offset="0.83" stop-color="#eba719"/><stop offset="0.83" stop-color="#f3bc32"/><stop offset="1" stop-color="#ffda54"/></linearGradient><mask id="mask-6" x="8.33" y="8.4" width="49.04" height="31.18" maskUnits="userSpaceOnUse"><g class="cls-5"><path class="cls-6" d="M18.3,36.11C25.18,34,32.15,32,39.21,30.62a121.62,121.62,0,0,1,18.16-2.5C54.22,16.7,44.68,8.4,33.4,8.4,19.56,8.4,8.33,20.91,8.33,36.33a31.9,31.9,0,0,0,.17,3.26C11.72,38.33,15,37.13,18.3,36.11Z"/></g></mask><linearGradient id="linear-gradient-7" x1="21.95" y1="9.88" x2="46.19" y2="61.65" xlink:href="#linear-gradient-5"/></defs><g id="Layer_2" data-name="Layer 2"><g id="_"><path class="cls-7" d="M36.63.4h-4C14.84.4.4,16.49.4,36.33S14.84,72.26,32.66,72.26h4c17.82,0,32.26-16.09,32.26-35.93S54.45.4,36.63.4Z"/><path class="cls-8" d="M36.63,72.66h-4C14.65,72.66,0,56.36,0,36.33S14.65,0,32.66,0h4c18,0,32.66,16.3,32.66,36.33S54.64,72.66,36.63,72.66ZM32.66.8C15.09.8.8,16.74.8,36.33S15.09,71.86,32.66,71.86h4c17.57,0,31.86-15.94,31.86-35.53S54.2.8,36.63.8Z"/><g class="cls-9"><path class="cls-10" d="M60.36,60.66a38.07,38.07,0,0,0,8.53-24.33c0-.27,0-.55,0-.82H.42c0,.27,0,.55,0,.82A38.13,38.13,0,0,0,8.93,60.66Z"/></g><ellipse class="cls-11" cx="32.66" cy="36.33" rx="32.26" ry="35.93"/><path class="cls-12" d="M32.66,72.66C14.65,72.66,0,56.36,0,36.33S14.65,0,32.66,0,65.32,16.3,65.32,36.33,50.67,72.66,32.66,72.66ZM32.66.8C15.09.8.8,16.74.8,36.33S15.09,71.86,32.66,71.86,64.52,55.92,64.52,36.33,50.23.8,32.66.8Z"/><g class="cls-13"><path class="cls-14" d="M29.87,30.08,30.1,30l1.56-.44A157.82,157.82,0,0,1,63,24.09C58.5,10.27,46.62.4,32.66.4,14.84.4.4,16.49.4,36.33a40.12,40.12,0,0,0,.34,5.18C9.6,36.05,20.21,32.85,29.87,30.08Z"/></g><ellipse class="cls-15" cx="32.66" cy="36.33" rx="26.44" ry="29.45"/><ellipse class="cls-11" cx="33.4" cy="36.33" rx="25.07" ry="27.93"/><g class="cls-16"><path class="cls-17" d="M18.3,36.11C25.18,34,32.15,32,39.21,30.62a121.62,121.62,0,0,1,18.16-2.5C54.22,16.7,44.68,8.4,33.4,8.4,19.56,8.4,8.33,20.91,8.33,36.33a31.9,31.9,0,0,0,.17,3.26C11.72,38.33,15,37.13,18.3,36.11Z"/></g><path class="cls-18" d="M38,63.47c-1.19,0-2.42,0-3.6-.09s-2.15-.55-3.05.27a1.14,1.14,0,0,0-.25,1.58c.82,1.23,2.4.89,3.67.7a7.83,7.83,0,0,0,3.61-1.47C38.83,64.12,38.46,63.47,38,63.47Z"/><path class="cls-18" d="M26.46.88A2.06,2.06,0,0,0,25,.58a1,1,0,0,0-.87,1.09,1,1,0,0,0,1.09.86,2.2,2.2,0,0,0,1.4-.78A.57.57,0,0,0,26.46.88Z"/></g></g></svg>